<svg xmlns="http://www.w3.org/2000/svg" width="66" height="215" viewBox="0 0 66 215">
  <defs>
    <style>
      .a {
        fill: #d45727;
      }
    </style>
  </defs>
  <title>Kantu logo</title>
  <g>
    <path class="a" d="M55.41,184l-19.2,8.82,3,3.82,16.2,2.82V208l-45-7.88V191.6l17.27,3L8.56,169.9a8.75,8.75,0,0,1,2.31-.88,10.52,10.52,0,0,1,2.44-.31,7.5,7.5,0,0,1,4,1,12.35,12.35,0,0,1,3.1,2.75q2.57,3.19,5,6.45t5,6.5l25-11.57Z"/>
    <path class="a" d="M55.41,141.81c-7,.94-12.32,4.22-13.2,8.51a7,7,0,0,0,.06,2.94l13.14,5.88v8.94Q44.15,163,33,158t-22.45-10v-11Q21.75,135.88,33,135t22.46-2.09Zm-21.77,1.94-10.45.88,10.45,4.75Z"/>
    <path class="a" d="M55.41,101.72l-28,13.3,28,5v8.51l-44.91-8V112L40,99.09,10.43,93.83A9.32,9.32,0,0,1,11,91.14a7.85,7.85,0,0,1,1.28-2.31,6.37,6.37,0,0,1,2-1.63,5.77,5.77,0,0,1,2.69-.62h.78a2.54,2.54,0,0,1,.78.12l11.64,2.07,25.27,4.44Z"/>
    <path class="a" d="M19.13,61.62,55.41,68v8.57L19.13,70.19v12L10.5,80.64V45.29a12.2,12.2,0,0,1,6,3.29,9.74,9.74,0,0,1,1.94,2.75,7.78,7.78,0,0,1,.72,3.35Z"/>
    <path class="a" d="M10.53,12,32.92,16a18.48,18.48,0,0,1,4.69,1.51,19.48,19.48,0,0,1,3.4,2l.07.05c.34.25.68.51,1,.78s.4.36.59.54a5.17,5.17,0,0,1,1.56,2.68c0,.22.46,2.42-.78,3.45a4,4,0,0,1-2.42.72,3.15,3.15,0,0,1-.54,0A6.75,6.75,0,0,1,38,26.26a8.24,8.24,0,0,0-7.28-1.76,14.43,14.43,0,0,0-7.88,4.22,16.12,16.12,0,0,0-1.59,1.92,16.78,16.78,0,0,1,10.23.23c2.63,1,4.49,3,6.29,5,.3.34.6.65.89.95a15.91,15.91,0,0,1-2.73.24c-.51,0-1,0-1.51-.07s-1-.1-1.5-.19L10.53,32.87v8.32l23.14,4.57a24.63,24.63,0,0,0,4.76.5,22,22,0,0,0,6.57-1,16.37,16.37,0,0,0,5.47-2.85,13.54,13.54,0,0,0,3.72-4.69,13.9,13.9,0,0,0,1.31-6.5v-.63a24.14,24.14,0,0,0-2-10.16,18.68,18.68,0,0,0-5.1-6.66,23.64,23.64,0,0,0-7.19-4,54,54,0,0,0-8.29-2.16L10.53,3.72Z"/>
  </g>
</svg>
