<svg version="1.1"
	 xmlns="http://www.w3.org/2000/svg" xmlns:xlink="http://www.w3.org/1999/xlink" xmlns:a="http://ns.adobe.com/AdobeSVGViewerExtensions/3.0/"
	 x="0px" y="0px" width="46.9px" height="204.3px" viewBox="0 0 46.9 204.3" style="enable-background:new 0 0 46.9 204.3;"
	 xml:space="preserve">
<style type="text/css">
	.st0{fill:#D45727;}
</style>
<defs>
</defs>
<g>
	<path class="st0" d="M46.9,180.3l-19.2,8.8l3,3.8l16.2,2.8v8.5l-45-7.9v-8.5l17.3,3L0,166.2c0.7-0.4,1.4-0.7,2.3-0.9
		c0.9-0.2,1.7-0.3,2.4-0.3c1.5,0,2.9,0.3,4,1c1.1,0.7,2.1,1.6,3.1,2.8c1.7,2.1,3.4,4.3,5,6.4c1.6,2.2,3.3,4.3,5,6.5l25-11.6V180.3z"
		/>
	<path class="st0" d="M46.9,138.1c-7,0.9-12.3,4.2-13.2,8.5c-0.2,0.8-0.2,1.8,0.1,2.9l13.1,5.9v8.9c-7.5-3.4-15-6.8-22.5-10
		c-7.5-3.3-14.9-6.6-22.5-10v-11c7.5-0.8,15-1.5,22.5-2.1c7.5-0.6,14.9-1.3,22.5-2.1V138.1z M25.1,140l-10.4,0.9l10.4,4.8V140z"/>
	<path class="st0" d="M46.9,98l-28,13.3l28,5v8.5l-44.9-7.9v-8.6l29.5-12.9L1.9,90.1c0-0.9,0.2-1.8,0.5-2.7c0.3-0.9,0.7-1.6,1.3-2.3
		c0.5-0.7,1.2-1.2,2-1.6c0.8-0.4,1.7-0.6,2.7-0.6c0.2,0,0.5,0,0.8,0c0.3,0,0.5,0,0.8,0.1L21.6,85l25.3,4.4V98z"/>
	<path class="st0" d="M10.6,57.9l36.3,6.4v8.6l-36.3-6.4v12l-8.6-1.6V41.6c1.1,0.2,2.2,0.7,3.2,1.2c1,0.6,1.9,1.3,2.8,2.1
		c0.8,0.8,1.5,1.7,1.9,2.8c0.5,1,0.7,2.1,0.7,3.3V57.9z"/>
	<g>
		<path class="st0" d="M2,8.3l22.4,3.9c1.5,0.3,3.1,0.8,4.7,1.5c1.2,0.6,2.3,1.2,3.4,2c0,0,0,0,0.1,0.1c0.3,0.3,0.7,0.5,1,0.8
			c0.2,0.2,0.4,0.4,0.6,0.5c0.8,0.7,1.3,1.6,1.6,2.7c0,0.2,0.5,2.4-0.8,3.5c-0.6,0.5-1.6,0.7-2.4,0.7c-0.3,0-0.5,0-0.5,0
			c-0.5-0.1-1.1-0.4-2.5-1.4c-1.6-1.2-3.4-2.5-7.3-1.8c-3,0.6-5.7,2-7.9,4.2c-0.7,0.7-1.2,1.4-1.6,1.9c2.1-0.6,6.1-1.3,10.2,0.2
			c2.6,1,4.5,3,6.3,5c0.3,0.3,0.6,0.7,0.9,1c-0.9,0.2-1.8,0.2-2.7,0.2c-0.5,0-1,0-1.5-0.1c-0.5,0-1-0.1-1.5-0.2L2,29.1v8.3L25.1,42
			c1.7,0.3,3.3,0.5,4.8,0.5c2.3,0,4.5-0.3,6.6-1c2.1-0.6,3.9-1.6,5.5-2.8c1.6-1.3,2.8-2.8,3.7-4.7c0.9-1.9,1.4-4,1.3-6.5v-0.6
			c0-4-0.7-7.4-2-10.2c-1.3-2.7-3-5-5.1-6.7c-2.1-1.7-4.5-3-7.2-4c-2.7-0.9-5.5-1.7-8.3-2.2L2,0V8.3z"/>
	</g>
</g>
</svg>
